<svg width="17" height="16" viewBox="0 0 17 16" fill="none" xmlns="http://www.w3.org/2000/svg">
<g clip-path="url(#clip0_73_270)">
<path d="M14.4181 4.74107C14.4281 4.88319 14.4281 5.02535 14.4281 5.16747C14.4281 9.50247 11.1509 14.4974 5.16096 14.4974C3.31558 14.4974 1.60132 13.9593 0.159302 13.0253C0.421495 13.0558 0.673569 13.0659 0.94585 13.0659C2.46851 13.0659 3.8702 12.5482 4.98953 11.6649C3.5576 11.6345 2.3576 10.6903 1.94415 9.39082C2.14585 9.42126 2.34751 9.44157 2.5593 9.44157C2.85172 9.44157 3.14418 9.40094 3.41643 9.32991C1.92401 9.02532 0.80465 7.70554 0.80465 6.11163V6.07104C1.23825 6.31469 1.74249 6.46697 2.2769 6.48726C1.39959 5.89841 0.824826 4.89335 0.824826 3.75629C0.824826 3.14716 0.98614 2.58879 1.26851 2.10148C2.87187 4.09132 5.28195 5.39079 7.98443 5.53294C7.93403 5.28929 7.90376 5.03551 7.90376 4.78169C7.90376 2.97457 9.35586 1.50251 11.1609 1.50251C12.0987 1.50251 12.9457 1.89844 13.5407 2.53804C14.2768 2.39591 14.9827 2.12179 15.6079 1.74616C15.3659 2.5076 14.8516 3.14719 14.176 3.55326C14.8315 3.48223 15.4668 3.29944 16.0516 3.04566C15.608 3.69538 15.0533 4.27404 14.4181 4.74107Z" fill="black"/>
</g>
<defs>
<clipPath id="clip0_73_270">
<rect width="15.8924" height="16" fill="white" transform="translate(0.159302)"/>
</clipPath>
</defs>
</svg>
